<svg width="51" height="50" viewBox="0 0 51 50" fill="none" xmlns="http://www.w3.org/2000/svg">
<path d="M12.3309 27.7826C11.6299 27.7826 11.045 27.5478 10.5763 27.078C10.1076 26.6083 9.87275 26.0235 9.87174 25.3235V10.4576C9.87174 9.75761 10.1066 9.17276 10.5763 8.70305C11.046 8.23334 11.6304 7.99899 12.3293 8H34.8054C35.5054 8 36.0898 8.23435 36.5585 8.70305C37.0272 9.17174 37.262 9.7566 37.263 10.4576V25.325C37.263 26.025 37.0282 26.6094 36.5585 27.078C36.0888 27.5467 35.5039 27.7816 34.8039 27.7826H12.3309ZM12.3309 26.2609H34.8054C35.0388 26.2609 35.2533 26.163 35.4491 25.9672C35.6449 25.7714 35.7423 25.5568 35.7413 25.3235V10.4576C35.7413 10.2243 35.6439 10.0097 35.4491 9.81392C35.2533 9.61812 35.0383 9.52022 34.8039 9.52022H12.3309C12.0965 9.52022 11.8814 9.61812 11.6857 9.81392C11.4909 10.0087 11.3935 10.2233 11.3935 10.4576V25.325C11.3935 25.5583 11.4909 25.7724 11.6857 25.9672C11.8804 26.162 12.095 26.2599 12.3293 26.2609M8 30.8261V29.3043H39.1348V30.8261H8Z" fill="white"/>
<rect x="27" y="18" width="15" height="21" fill="white"/>
<path d="M28.2542 43.4348C27.6116 43.4348 27.0755 43.2004 26.6459 42.7317C26.2162 42.263 26.0009 41.6782 26 40.9772V15.4576C26 14.7576 26.2153 14.1733 26.6459 13.7046C27.0764 13.2359 27.6125 13.001 28.2542 13H40.4863C41.128 13 41.6636 13.2349 42.0933 13.7046C42.5229 14.1743 42.7382 14.7591 42.7391 15.4591V40.9772C42.7391 41.6772 42.5243 42.262 42.0947 42.7317C41.665 43.2014 41.1285 43.4358 40.4849 43.4348H28.2542ZM27.3949 38.1087H41.3442V18.3261H27.3949V38.1087Z" fill="#E0E0E0"/>
<path d="M39.1694 33L40 32.1821L36.8241 28.9914C37.0621 28.6218 37.2321 28.2722 37.3342 27.9426C37.4372 27.613 37.4886 27.2199 37.4886 26.7634C37.4886 25.7146 37.1231 24.8254 36.392 24.0957C35.66 23.3652 34.7774 23 33.7443 23C32.7112 23 31.8287 23.3652 31.0967 24.0957C30.3647 24.8262 29.9991 25.7155 30 26.7634C30.0009 27.8113 30.3664 28.7005 31.0967 29.431C31.8287 30.1615 32.7112 30.5267 33.7443 30.5267C34.1986 30.5267 34.5923 30.4667 34.9254 30.3467C35.2594 30.2276 35.621 30.0484 36.0104 29.8093L39.1694 33ZM33.7443 29.3736C33.0305 29.3736 32.4196 29.1179 31.9117 28.6066C31.4039 28.0952 31.1495 27.4808 31.1486 26.7634C31.1477 26.0459 31.4021 25.432 31.9117 24.9215C32.4214 24.411 33.0322 24.1553 33.7443 24.1544C34.4538 24.1544 35.0638 24.4101 35.5743 24.9215C36.0848 25.432 36.34 26.0459 36.34 26.7634C36.34 27.4808 36.0861 28.0952 35.5782 28.6066C35.0703 29.1179 34.459 29.3732 33.7443 29.3723" fill="#27DEBF"/>
</svg>
