<svg width="51" height="50" viewBox="0 0 51 50" fill="none" xmlns="http://www.w3.org/2000/svg">
<rect x="0.75" y="0.5" width="49" height="49" rx="24.5" stroke="white"/>
<path fill-rule="evenodd" clip-rule="evenodd" d="M9.49833 25C9.49833 23.6273 9.86465 22.2818 10.5562 21.1142C11.2478 19.9465 12.2373 19.0029 13.4139 18.389C14.5905 17.7751 15.9076 17.5153 17.2178 17.6386C18.5279 17.7618 19.7793 18.2634 20.8317 19.087C21.0969 19.2947 21.4303 19.3841 21.7587 19.3353C22.087 19.2866 22.3834 19.1037 22.5825 18.827C22.7816 18.5502 22.8673 18.2023 22.8205 17.8596C22.7738 17.517 22.5986 17.2078 22.3333 17C21.1186 16.0493 19.7048 15.4135 18.2083 15.1448C16.7119 14.8761 15.1757 14.9824 13.7263 15.4547C12.2769 15.9271 10.9558 16.7521 9.87195 17.8617C8.78805 18.9713 7.97234 20.3338 7.49205 21.8369C7.01176 23.34 6.88062 24.9407 7.10945 26.507C7.33828 28.0734 7.92052 29.5606 8.8082 30.846C9.69588 32.1315 10.8636 33.1785 12.2151 33.9007C13.5666 34.623 15.0632 34.9997 16.5817 35C17.8883 35 19.0217 34.7513 20.0217 34.2435C21.0217 33.7357 21.82 33.0017 22.5033 32.1304C23.6033 30.7322 24.4967 28.8365 25.4633 26.7843L26.0283 25.5861C26.1748 25.2752 26.1976 24.9165 26.0918 24.5881C25.986 24.2598 25.7601 23.9884 25.4633 23.833C25.3168 23.7562 25.1572 23.7105 24.9937 23.6984C24.8301 23.6863 24.6659 23.7081 24.5105 23.7626C24.3551 23.8171 24.2115 23.9032 24.0881 24.0159C23.9648 24.1285 23.864 24.2656 23.7917 24.4191L23.1817 25.7113C22.2083 27.7687 21.47 29.3322 20.57 30.4765C20.0583 31.1287 19.53 31.5896 18.9267 31.8974C18.3233 32.2052 17.5767 32.3913 16.5817 32.3913C14.7031 32.3913 12.9014 31.6126 11.573 30.2264C10.2446 28.8403 9.49833 26.9603 9.49833 25Z" fill="white"/>
<path opacity="0.5" d="M26.0325 25.5826C26.1778 25.2719 26.1998 24.9139 26.0937 24.5863C25.9876 24.2587 25.762 23.9881 25.4658 23.833C25.1852 23.6861 24.8618 23.6553 24.5603 23.7469C24.2589 23.8386 24.0019 24.0458 23.8408 24.327C24.0208 23.953 24.1958 23.5809 24.3675 23.2157C25.3342 21.1635 26.2292 19.2678 27.3275 17.8696C28.0108 16.9983 28.8108 16.2643 29.8108 15.7565C30.8108 15.2487 31.9442 15 33.2492 15C34.7677 15 36.2644 15.3765 37.6161 16.0986C38.9678 16.8206 40.1357 17.8675 41.0236 19.1529C41.9114 20.4383 42.4939 21.9255 42.7229 23.4919C42.9519 25.0583 42.8209 26.6591 42.3407 28.1623C41.8605 29.6655 41.0449 31.0281 39.961 32.1378C38.8771 33.2476 37.556 34.0727 36.1066 34.5451C34.6572 35.0176 33.1209 35.1239 31.6244 34.8552C30.1279 34.5866 28.714 33.9507 27.4992 33C27.2339 32.7924 27.0586 32.4834 27.0117 32.141C26.9648 31.7985 27.0502 31.4507 27.2492 31.1739C27.4481 30.8972 27.7442 30.7142 28.0724 30.6653C28.4006 30.6164 28.7339 30.7055 28.9992 30.913C29.897 31.6157 30.9421 32.0857 32.0482 32.2843C33.1544 32.4829 34.2899 32.4043 35.3612 32.0551C36.4325 31.7059 37.4089 31.096 38.2101 30.2758C39.0112 29.4556 39.6141 28.4484 39.969 27.3373C40.3239 26.2263 40.4207 25.0431 40.2515 23.8853C40.0822 22.7276 39.6517 21.6283 38.9955 20.6782C38.3392 19.7281 37.476 18.9544 36.4769 18.4207C35.4778 17.887 34.3715 17.6087 33.2492 17.6087C32.2558 17.6087 31.5075 17.7948 30.9058 18.1026C30.3008 18.4087 29.7725 18.8713 29.2608 19.5217C28.3608 20.6696 27.6225 22.2313 26.6492 24.2887C26.4558 24.7009 26.2492 25.1322 26.0325 25.5826Z" fill="#27DEBF"/>
</svg>
