<svg width="51" height="50" viewBox="0 0 51 50" fill="none" xmlns="http://www.w3.org/2000/svg">
<path d="M15 18.5V31.8332M23.4262 18.5V31.8332M15 25.5H23.4262M37.75 32.5L34.3795 29.833M32.6943 31.8332C31.912 31.8332 31.52 31.8332 31.1945 31.7807C29.8575 31.5707 28.8128 30.7447 28.5468 29.686C28.482 29.4287 28.482 29.119 28.482 28.4995V21.832C28.482 21.2143 28.482 20.9045 28.5468 20.6473C28.8128 19.5885 29.8575 18.7625 31.1945 18.5508C31.52 18.5 31.912 18.5 32.6925 18.5C33.4765 18.5 33.8667 18.5 34.1922 18.5525C35.5292 18.7625 36.574 19.5885 36.8418 20.6473C36.9065 20.9045 36.9065 21.2142 36.9065 21.8337V28.5012C36.9065 29.119 36.9065 29.4287 36.8418 29.6877C36.5758 30.7447 35.5292 31.5707 34.1922 31.7825C33.8667 31.8332 33.4765 31.8332 32.6943 31.8332Z" stroke="#27DEBF" stroke-width="2" stroke-linecap="round"/>
<path d="M43 25.5C43 33.7495 43 37.8742 40.4362 40.4362C37.876 43 33.7495 43 25.5 43C17.2505 43 13.1258 43 10.562 40.4362C8 37.876 8 33.7495 8 25.5C8 17.2505 8 13.1258 10.562 10.562C13.1275 8 17.2505 8 25.5 8C33.7495 8 37.8742 8 40.4362 10.562C42.1407 12.2665 42.7112 14.6622 42.9037 18.5" stroke="white" stroke-width="1.5" stroke-linecap="round"/>
</svg>
