<svg width="51" height="50" viewBox="0 0 51 50" fill="none" xmlns="http://www.w3.org/2000/svg">
<path d="M32.578 21.579L27.0184 27.1386C26.6855 27.0501 26.3429 27.003 25.9985 26.9986C24.9377 26.9986 23.9204 27.42 23.1703 28.1701C22.4202 28.9202 21.9988 29.9375 21.9988 30.9983C22.0033 31.3427 22.0503 31.6853 22.1388 32.0182L20.5789 33.5781C20.3915 33.764 20.2427 33.9852 20.1412 34.2289C20.0396 34.4726 19.9874 34.734 19.9874 34.998C19.9874 35.262 20.0396 35.5234 20.1412 35.7671C20.2427 36.0108 20.3915 36.2319 20.5789 36.4179C20.7648 36.6053 20.986 36.7541 21.2297 36.8556C21.4734 36.9571 21.7348 37.0094 21.9988 37.0094C22.2628 37.0094 22.5242 36.9571 22.7679 36.8556C23.0116 36.7541 23.2328 36.6053 23.4187 36.4179L24.9786 34.858C25.3115 34.9465 25.6541 34.9935 25.9985 34.998C27.0593 34.998 28.0766 34.5766 28.8267 33.8265C29.5768 33.0764 29.9982 32.0591 29.9982 30.9983C29.9937 30.6538 29.9467 30.3113 29.8582 29.9784L35.4178 24.4188C35.7943 24.0422 36.0059 23.5315 36.0059 22.9989C36.0059 22.4663 35.7943 21.9556 35.4178 21.579C35.0412 21.2024 34.5304 20.9909 33.9979 20.9909C33.4653 20.9909 32.9546 21.2024 32.578 21.579ZM25.9985 9C23.3723 9 20.7717 9.51727 18.3454 10.5223C15.9191 11.5273 13.7145 13.0004 11.8575 14.8574C8.10703 18.6078 6.00006 23.6945 6.00006 28.9984C5.99021 32.9593 7.16741 36.8322 9.3798 40.1176C9.67682 40.5578 10.1365 40.862 10.6579 40.9633C11.1792 41.0645 11.7194 40.9545 12.1596 40.6575C12.5998 40.3605 12.904 39.9008 13.0053 39.3795C13.1065 38.8581 12.9966 38.318 12.6995 37.8777C11.0887 35.469 10.1623 32.668 10.0193 29.7738C9.87621 26.8796 10.5219 24.0009 11.8874 21.4451C13.2528 18.8893 15.2868 16.7523 17.7721 15.2623C20.2575 13.7723 23.1008 12.9853 25.9985 12.9853C28.8962 12.9853 31.7395 13.7723 34.2248 15.2623C36.7102 16.7523 38.7441 18.8893 40.1096 21.4451C41.4751 24.0009 42.1208 26.8796 41.9777 29.7738C41.8347 32.668 40.9083 35.469 39.2975 37.8777C39.1501 38.0956 39.0471 38.3404 38.9945 38.5981C38.9418 38.8559 38.9405 39.1214 38.9907 39.3797C39.0409 39.6379 39.1415 39.8837 39.2868 40.1029C39.432 40.3222 39.6192 40.5107 39.8374 40.6575C40.1685 40.88 40.5585 40.9984 40.9573 40.9975C41.2849 40.998 41.6076 40.918 41.897 40.7646C42.1864 40.6111 42.4337 40.389 42.6172 40.1176C44.8296 36.8322 46.0068 32.9593 45.9969 28.9984C45.9969 23.6945 43.89 18.6078 40.1395 14.8574C36.3891 11.107 31.3024 9 25.9985 9Z" fill="#27DEBF"/>
<path d="M25.9985 9C23.3723 9 20.7717 9.51727 18.3454 10.5223C15.9191 11.5273 13.7145 13.0004 11.8575 14.8574C8.10703 18.6078 6.00006 23.6945 6.00006 28.9984C5.99021 32.9593 7.16741 36.8322 9.3798 40.1176C9.67682 40.5578 10.1365 40.862 10.6579 40.9633C11.1792 41.0645 11.7194 40.9545 12.1596 40.6575C12.5998 40.3605 12.904 39.9008 13.0053 39.3795C13.1065 38.8581 12.9966 38.318 12.6995 37.8777C11.0887 35.469 10.1623 32.668 10.0193 29.7738C9.87621 26.8796 10.5219 24.0009 11.8874 21.4451C13.2528 18.8893 15.2868 16.7523 17.7721 15.2623C20.2575 13.7723 23.1008 12.9853 25.9985 12.9853C28.8962 12.9853 31.7395 13.7723 34.2248 15.2623C36.7102 16.7523 38.7441 18.8893 40.1096 21.4451C41.4751 24.0009 42.1208 26.8796 41.9777 29.7738C41.8347 32.668 40.9083 35.469 39.2975 37.8777C39.1501 38.0956 39.0471 38.3404 38.9945 38.5981C38.9418 38.8559 38.9405 39.1214 38.9907 39.3797C39.0409 39.6379 39.1415 39.8837 39.2868 40.1029C39.432 40.3222 39.6192 40.5107 39.8374 40.6575C40.1685 40.88 40.5585 40.9984 40.9573 40.9975C41.2849 40.998 41.6076 40.918 41.897 40.7646C42.1864 40.6111 42.4337 40.389 42.6172 40.1176C44.8296 36.8322 46.0068 32.9593 45.9969 28.9984C45.9969 23.6945 43.89 18.6078 40.1395 14.8574C36.3891 11.107 31.3024 9 25.9985 9Z" fill="white"/>
</svg>
